<svg xmlns="http://www.w3.org/2000/svg" viewBox="0 0 500 500" width="100%" height="100%">
  <rect width="500" height="500" fill="#FFFBEB" rx="20"/>
  <rect x="20" y="20" width="460" height="460" fill="none" stroke="#D97706" stroke-width="4" stroke-dasharray="8 8" rx="16"/>

  <g fill="#78350F">
    <rect x="70" y="70" width="90" height="90" rx="8"/>
    <rect x="85" y="85" width="60" height="60" fill="#FFFBEB"/>
    <rect x="100" y="100" width="30" height="30"/>

    <rect x="340" y="70" width="90" height="90" rx="8"/>
    <rect x="355" y="85" width="60" height="60" fill="#FFFBEB"/>
    <rect x="370" y="100" width="30" height="30"/>

    <rect x="70" y="340" width="90" height="90" rx="8"/>
    <rect x="85" y="355" width="60" height="60" fill="#FFFBEB"/>
    <rect x="100" y="370" width="30" height="30"/>

    <rect x="200" y="80" width="20" height="20"/>
    <rect x="240" y="100" width="40" height="20"/>
    <rect x="180" y="140" width="20" height="40"/>
    <rect x="220" y="180" width="60" height="20"/>
    <rect x="300" y="200" width="40" height="40"/>
    <rect x="120" y="240" width="40" height="20"/>
    <rect x="200" y="280" width="60" height="30"/>
    <rect x="320" y="320" width="30" height="50"/>
    <rect x="260" y="380" width="50" height="30"/>
    <rect x="380" y="260" width="30" height="50"/>
  </g>

  <rect x="70" y="210" width="360" height="80" rx="16" fill="#B45309" filter="drop-shadow(0px 8px 16px rgba(0,0,0,0.3))"/>
  <text x="250" y="245" font-family="'Yatra One', 'Noto Sans Devanagari', sans-serif" font-size="22" fill="#FFFFFF" text-anchor="middle" font-weight="bold">लवकरच सुरू (COMING SOON)</text>
  <text x="250" y="273" font-family="'Poppins', sans-serif" font-size="14" fill="#FEF3C7" text-anchor="middle">वावेलवाडी विकास निधी UPI QR कोड</text>
</svg>
